<svg width="64" height="64" viewBox="0 0 64 64" fill="none" xmlns="http://www.w3.org/2000/svg">
  <path
    d="M32 8C33.5 14.5 38.5 18.5 45.5 20C39.5 24 36.5 28.5 36 35C41.5 34 46.5 35.5 51 40C43.5 41.5 38.5 45.5 36.5 52C33 48.5 28.5 46.5 23 46.5C24.5 41 28 37.5 33 35.5C26.5 32.5 22 28 19.5 21.5C25 22.5 29 20.5 32 16C35 20.5 39 22.5 44.5 21.5C40 25 36 29 32 34C28 29 24 25 19.5 21.5C18.5 15 23 11 32 8Z"
    fill="#FFF6E8"
  />
  <path
    d="M31.5 17.5C34.5 21 39 23.5 44.5 24.5C39.5 27.5 36.5 31.5 35.5 36.5C39.5 36 43.5 37.5 47.5 41C41.5 42.5 37.5 46 35.5 51C32.5 48.5 28.5 47 24 47C25.5 42 28.5 38.5 33 36.5C27.5 33.5 23.5 29.5 21.5 24.5C26.5 24 30 21.5 31.5 17.5Z"
    fill="#D4622A"
  />
</svg>
